<svg id="Capa_1" enable-background="new 0 0 512 512" height="512" viewBox="0 0 512 512" width="512" xmlns="http://www.w3.org/2000/svg"><path d="m241 276.829h30v128.43h-30z" fill="#07485e"/><path d="m256 323.976-10.008 15.429 10.008 14.571h176.929v49.645h30v-79.645z" fill="#07485e"/><path d="m49.071 323.976v79.645h30v-49.645h176.929v-30z" fill="#09607d"/><path d="m0 384h128.143v90.048h-128.143z" fill="#78b9eb"/><path d="m383.857 384h128.143v90.048h-128.143z" fill="#6e76e5"/><path d="m320.072 474.048v-90.048h-64.072l-20.016 48.147 20.016 41.901z" fill="#6e76e5"/><path d="m191.928 384h64.072v90.048h-64.072z" fill="#78b9eb"/><path d="m286 414.024h-30l-10.008 15 10.008 15h30z" fill="#e1ebf0"/><path d="m225.976 414.024h30v30h-30z" fill="#fff5f5"/><path d="m34.06 414.024h60.024v30h-60.024z" fill="#fff5f5"/><path d="m417.916 414.024h60.024v30h-60.024z" fill="#e1ebf0"/><path d="m421.411 165.637c.218-2.207.334-4.444.334-6.708 0-37.293-30.232-67.525-67.525-67.525-6.416 0-12.616.914-18.496 2.586-11.749-32.672-43.006-56.038-79.724-56.038l-20.016 139.607 20.016 116.393h149.371c35.984 0 65.155-29.171 65.155-65.155 0-30.448-20.888-56.013-49.115-63.16z" fill="#efe2dd"/><path d="m176.276 93.99c-5.88-1.672-12.08-2.586-18.496-2.586-37.293 0-67.525 30.232-67.525 67.525 0 2.264.116 4.501.334 6.708-28.227 7.147-49.114 32.712-49.114 63.16 0 35.984 29.171 65.155 65.155 65.155h149.37v-256c-36.718 0-67.975 23.366-79.724 56.038z" fill="#fff5f5"/></svg>